# xmcd CD database file
#
# Track frame offsets:
#	150
#	4700
#	34287
#	50325
#	80007
#	100587
#	122145
#	141950
#	172552
#	200212
#	230975
#	256197
#	279517
#	288757
#
# Disc length: 4142 seconds
#
# Revision: 0
# Processed by: cddbd v1.4PL0 Copyright (c) Steve Scherf et al.
# Submitted via: CDex 1.50
#
DISCID=c1102c0e
DTITLE=Don Lanphere - Year 'Round Christmas
DYEAR=1999
DGENRE=Jazz
TTITLE0=Overture "Christmas Song to the World"
TTITLE1=Jingle Bells
TTITLE2=Cradle in Bethlehem
TTITLE3=Silver Bells
TTITLE4=The Christmas Song
TTITLE5=Mary's Little Boy Child
TTITLE6=I'll Be Home for Christmas
TTITLE7=God Rest Ye Merry Gentlemen
TTITLE8=Deck the Hall
TTITLE9=O Come, O Come Emmanuel
TTITLE10=Have Yourself a Merry Little Christmas
TTITLE11=It Came Upon a Midnight Clear
TTITLE12=O Holy Night
TTITLE13=Let It Snow, Let It Snow
EXTD=YEAR: 1999
EXTT0=
EXTT1=
EXTT2=
EXTT3=
EXTT4=
EXTT5=
EXTT6=
EXTT7=
EXTT8=
EXTT9=
EXTT10=
EXTT11=
EXTT12=
EXTT13=
PLAYORDER=
